<mxfile host="app.diagrams.net" modified="2021-03-18T08:53:07.397Z" agent="5.0 (Windows NT 10.0; Win64; x64) AppleWebKit/537.36 (KHTML, like Gecko) Chrome/89.0.4389.90 Safari/537.36" etag="UxZfSaOFmsDxwn0dRG0B" version="14.4.8" type="github">
  <diagram name="Page-1" id="5f0bae14-7c28-e335-631c-24af17079c00">
    <mxGraphModel dx="2830" dy="1763" grid="1" gridSize="10" guides="1" tooltips="1" connect="1" arrows="1" fold="1" page="1" pageScale="1" pageWidth="1100" pageHeight="850" background="#ffffff" math="0" shadow="0">
      <root>
        <mxCell id="0" />
        <mxCell id="1" parent="0" />
        <mxCell id="iaBttmkS24rwcyHktMja-27" value="" style="group" vertex="1" connectable="0" parent="1">
          <mxGeometry x="960" y="630" width="280" height="202.5" as="geometry" />
        </mxCell>
        <mxCell id="iaBttmkS24rwcyHktMja-23" value="" style="shape=cube;whiteSpace=wrap;html=1;boundedLbl=1;backgroundOutline=1;darkOpacity=0.05;darkOpacity2=0.1;rounded=0;shadow=0;comic=0;strokeColor=#82b366;strokeWidth=1;fillColor=#d5e8d4;fontFamily=Verdana;align=left;" vertex="1" parent="iaBttmkS24rwcyHktMja-27">
          <mxGeometry width="280" height="202.5" as="geometry" />
        </mxCell>
        <mxCell id="iaBttmkS24rwcyHktMja-24" value="tipos" style="shape=component;align=left;spacingLeft=36;rounded=0;shadow=0;comic=0;labelBackgroundColor=none;strokeWidth=1;fontFamily=Verdana;fontSize=12;html=1;" vertex="1" parent="iaBttmkS24rwcyHktMja-27">
          <mxGeometry x="40" y="77.5" width="120" height="60" as="geometry" />
        </mxCell>
        <mxCell id="iaBttmkS24rwcyHktMja-25" value="Security Filter" style="ellipse;shape=umlControl;whiteSpace=wrap;html=1;rounded=0;shadow=0;comic=0;strokeWidth=1;fontFamily=Verdana;align=left;fillColor=#FF0000;" vertex="1" parent="iaBttmkS24rwcyHktMja-27">
          <mxGeometry x="180" y="77.5" width="70" height="80" as="geometry" />
        </mxCell>
        <mxCell id="iaBttmkS24rwcyHktMja-26" value="&lt;b&gt;&lt;u&gt;TIPOS&lt;/u&gt;&lt;/b&gt;" style="text;html=1;strokeColor=none;fillColor=none;align=center;verticalAlign=middle;whiteSpace=wrap;rounded=0;shadow=0;comic=0;fontFamily=Verdana;" vertex="1" parent="iaBttmkS24rwcyHktMja-27">
          <mxGeometry x="40" y="32.5" width="40" height="20" as="geometry" />
        </mxCell>
        <mxCell id="iaBttmkS24rwcyHktMja-36" value="" style="group" vertex="1" connectable="0" parent="1">
          <mxGeometry y="80" width="300" height="145" as="geometry" />
        </mxCell>
        <mxCell id="iaBttmkS24rwcyHktMja-28" value="" style="shape=cube;whiteSpace=wrap;html=1;boundedLbl=1;backgroundOutline=1;darkOpacity=0.05;darkOpacity2=0.1;rounded=0;shadow=0;comic=0;strokeColor=#82b366;strokeWidth=1;fillColor=#d5e8d4;fontFamily=Verdana;align=left;" vertex="1" parent="iaBttmkS24rwcyHktMja-36">
          <mxGeometry width="300" height="145" as="geometry" />
        </mxCell>
        <mxCell id="iaBttmkS24rwcyHktMja-29" value="Batch&lt;br&gt;" style="shape=component;align=left;spacingLeft=36;rounded=0;shadow=0;comic=0;labelBackgroundColor=none;strokeWidth=1;fontFamily=Verdana;fontSize=12;html=1;" vertex="1" parent="iaBttmkS24rwcyHktMja-36">
          <mxGeometry x="30" y="60" width="120" height="60" as="geometry" />
        </mxCell>
        <mxCell id="iaBttmkS24rwcyHktMja-30" value="&lt;b&gt;&lt;u&gt;Batch&lt;/u&gt;&lt;/b&gt;" style="text;html=1;strokeColor=none;fillColor=none;align=center;verticalAlign=middle;whiteSpace=wrap;rounded=0;shadow=0;comic=0;fontFamily=Verdana;" vertex="1" parent="iaBttmkS24rwcyHktMja-36">
          <mxGeometry x="40" y="30" width="40" height="20" as="geometry" />
        </mxCell>
        <mxCell id="iaBttmkS24rwcyHktMja-44" value="" style="group" vertex="1" connectable="0" parent="1">
          <mxGeometry x="420" y="500" width="430" height="360" as="geometry" />
        </mxCell>
        <mxCell id="iaBttmkS24rwcyHktMja-79" value="" style="endArrow=classic;html=1;strokeWidth=5;fontFamily=Verdana;fillColor=#f8cecc;strokeColor=#b85450;" edge="1" parent="iaBttmkS24rwcyHktMja-44">
          <mxGeometry width="50" height="50" relative="1" as="geometry">
            <mxPoint x="200" y="-240" as="sourcePoint" />
            <mxPoint x="200" y="30" as="targetPoint" />
          </mxGeometry>
        </mxCell>
        <mxCell id="iaBttmkS24rwcyHktMja-84" value="" style="group" vertex="1" connectable="0" parent="iaBttmkS24rwcyHktMja-44">
          <mxGeometry x="20" y="50" width="410" height="300" as="geometry" />
        </mxCell>
        <mxCell id="iaBttmkS24rwcyHktMja-35" value="" style="shape=cube;whiteSpace=wrap;html=1;boundedLbl=1;backgroundOutline=1;darkOpacity=0.05;darkOpacity2=0.1;rounded=0;shadow=0;comic=0;strokeColor=#82b366;strokeWidth=1;fillColor=#d5e8d4;fontFamily=Verdana;align=left;" vertex="1" parent="iaBttmkS24rwcyHktMja-84">
          <mxGeometry width="410" height="300" as="geometry" />
        </mxCell>
        <mxCell id="iaBttmkS24rwcyHktMja-11" value="Calendarios" style="shape=component;align=left;spacingLeft=36;rounded=0;shadow=0;comic=0;labelBackgroundColor=none;strokeWidth=1;fontFamily=Verdana;fontSize=12;html=1;" vertex="1" parent="iaBttmkS24rwcyHktMja-84">
          <mxGeometry x="170" y="210" width="120" height="60" as="geometry" />
        </mxCell>
        <mxCell id="iaBttmkS24rwcyHktMja-12" value="Registro horas" style="shape=component;align=left;spacingLeft=36;rounded=0;shadow=0;comic=0;labelBackgroundColor=none;strokeWidth=1;fontFamily=Verdana;fontSize=12;html=1;" vertex="1" parent="iaBttmkS24rwcyHktMja-84">
          <mxGeometry x="160" y="140" width="140" height="60" as="geometry" />
        </mxCell>
        <mxCell id="iaBttmkS24rwcyHktMja-13" value="Informes" style="shape=component;align=left;spacingLeft=36;rounded=0;shadow=0;comic=0;labelBackgroundColor=none;strokeWidth=1;fontFamily=Verdana;fontSize=12;html=1;" vertex="1" parent="iaBttmkS24rwcyHktMja-84">
          <mxGeometry x="30" y="70" width="120" height="60" as="geometry" />
        </mxCell>
        <mxCell id="iaBttmkS24rwcyHktMja-15" value="Security Filter" style="ellipse;shape=umlControl;whiteSpace=wrap;html=1;rounded=0;shadow=0;comic=0;strokeWidth=1;fontFamily=Verdana;align=left;fillColor=#FF0000;" vertex="1" parent="iaBttmkS24rwcyHktMja-84">
          <mxGeometry x="320" y="40" width="70" height="80" as="geometry" />
        </mxCell>
        <mxCell id="iaBttmkS24rwcyHktMja-39" value="&lt;b&gt;&lt;u&gt;&lt;font style=&quot;font-size: 13px&quot;&gt;Registro de horas&lt;/font&gt;&lt;/u&gt;&lt;/b&gt;" style="text;html=1;strokeColor=none;fillColor=none;align=center;verticalAlign=middle;whiteSpace=wrap;rounded=0;shadow=0;comic=0;fontFamily=Verdana;" vertex="1" parent="iaBttmkS24rwcyHktMja-84">
          <mxGeometry x="20" y="30" width="160" height="20" as="geometry" />
        </mxCell>
        <mxCell id="iaBttmkS24rwcyHktMja-14" value="Summary" style="shape=component;align=left;spacingLeft=36;rounded=0;shadow=0;comic=0;labelBackgroundColor=none;strokeWidth=1;fontFamily=Verdana;fontSize=12;html=1;" vertex="1" parent="iaBttmkS24rwcyHktMja-84">
          <mxGeometry x="30" y="140" width="120" height="60" as="geometry" />
        </mxCell>
        <mxCell id="iaBttmkS24rwcyHktMja-10" value="Ausencias" style="shape=component;align=left;spacingLeft=36;rounded=0;shadow=0;comic=0;labelBackgroundColor=none;strokeWidth=1;fontFamily=Verdana;fontSize=12;html=1;" vertex="1" parent="iaBttmkS24rwcyHktMja-84">
          <mxGeometry x="30" y="220" width="120" height="60" as="geometry" />
        </mxCell>
        <mxCell id="iaBttmkS24rwcyHktMja-49" value="" style="group" vertex="1" connectable="0" parent="1">
          <mxGeometry x="-10" y="530" width="340" height="250" as="geometry" />
        </mxCell>
        <mxCell id="iaBttmkS24rwcyHktMja-46" value="" style="shape=cube;whiteSpace=wrap;html=1;boundedLbl=1;backgroundOutline=1;darkOpacity=0.05;darkOpacity2=0.1;rounded=0;shadow=0;comic=0;strokeColor=#82b366;strokeWidth=1;fillColor=#d5e8d4;fontFamily=Verdana;align=left;" vertex="1" parent="iaBttmkS24rwcyHktMja-49">
          <mxGeometry width="340" height="250" as="geometry" />
        </mxCell>
        <mxCell id="iaBttmkS24rwcyHktMja-17" value="Security Filter" style="ellipse;shape=umlControl;whiteSpace=wrap;html=1;rounded=0;shadow=0;comic=0;strokeWidth=1;fontFamily=Verdana;align=left;fillColor=#FF0000;" vertex="1" parent="iaBttmkS24rwcyHktMja-49">
          <mxGeometry x="240" y="100" width="70" height="80" as="geometry" />
        </mxCell>
        <mxCell id="iaBttmkS24rwcyHktMja-21" value="Mailing" style="shape=component;align=left;spacingLeft=36;rounded=0;shadow=0;comic=0;labelBackgroundColor=none;strokeWidth=1;fontFamily=Verdana;fontSize=12;html=1;" vertex="1" parent="iaBttmkS24rwcyHktMja-49">
          <mxGeometry x="30" y="90" width="120" height="60" as="geometry" />
        </mxCell>
        <mxCell id="iaBttmkS24rwcyHktMja-22" value="Setting" style="shape=component;align=left;spacingLeft=36;rounded=0;shadow=0;comic=0;labelBackgroundColor=none;strokeWidth=1;fontFamily=Verdana;fontSize=12;html=1;" vertex="1" parent="iaBttmkS24rwcyHktMja-49">
          <mxGeometry x="30" y="175" width="120" height="60" as="geometry" />
        </mxCell>
        <mxCell id="iaBttmkS24rwcyHktMja-47" value="&lt;b&gt;&lt;u&gt;&lt;font style=&quot;font-size: 14px&quot;&gt;Settings&lt;/font&gt;&lt;/u&gt;&lt;/b&gt;" style="text;html=1;strokeColor=none;fillColor=none;align=center;verticalAlign=middle;whiteSpace=wrap;rounded=0;shadow=0;comic=0;fontFamily=Verdana;" vertex="1" parent="iaBttmkS24rwcyHktMja-49">
          <mxGeometry x="50" y="30" width="40" height="20" as="geometry" />
        </mxCell>
        <mxCell id="iaBttmkS24rwcyHktMja-58" value="" style="group" vertex="1" connectable="0" parent="1">
          <mxGeometry x="460" y="80" width="390" height="190" as="geometry" />
        </mxCell>
        <mxCell id="iaBttmkS24rwcyHktMja-50" value="" style="shape=cube;whiteSpace=wrap;html=1;boundedLbl=1;backgroundOutline=1;darkOpacity=0.05;darkOpacity2=0.1;rounded=0;shadow=0;comic=0;strokeColor=#82b366;strokeWidth=1;fillColor=#d5e8d4;fontFamily=Verdana;align=left;" vertex="1" parent="iaBttmkS24rwcyHktMja-58">
          <mxGeometry width="390" height="190" as="geometry" />
        </mxCell>
        <mxCell id="iaBttmkS24rwcyHktMja-56" value="" style="group" vertex="1" connectable="0" parent="iaBttmkS24rwcyHktMja-58">
          <mxGeometry x="40" y="31.25" width="310" height="153.75" as="geometry" />
        </mxCell>
        <mxCell id="39150e848f15840c-5" value="Empleados" style="shape=component;align=left;spacingLeft=36;rounded=0;shadow=0;comic=0;labelBackgroundColor=none;strokeWidth=1;fontFamily=Verdana;fontSize=12;html=1;" parent="iaBttmkS24rwcyHktMja-56" vertex="1">
          <mxGeometry x="95" y="20" width="120" height="60" as="geometry" />
        </mxCell>
        <mxCell id="iaBttmkS24rwcyHktMja-4" value="Security Filter" style="ellipse;shape=umlControl;whiteSpace=wrap;html=1;rounded=0;shadow=0;comic=0;strokeWidth=1;fontFamily=Verdana;align=left;fillColor=#FF0000;" vertex="1" parent="iaBttmkS24rwcyHktMja-56">
          <mxGeometry x="240" y="53.75" width="70" height="80" as="geometry" />
        </mxCell>
        <mxCell id="iaBttmkS24rwcyHktMja-51" value="MassiveEmployees" style="shape=component;align=left;spacingLeft=36;rounded=0;shadow=0;comic=0;labelBackgroundColor=none;strokeWidth=1;fontFamily=Verdana;fontSize=12;html=1;" vertex="1" parent="iaBttmkS24rwcyHktMja-56">
          <mxGeometry y="93.75" width="170" height="60" as="geometry" />
        </mxCell>
        <mxCell id="iaBttmkS24rwcyHktMja-52" value="&lt;b&gt;&lt;u&gt;&lt;font style=&quot;font-size: 15px&quot;&gt;Empleados&lt;/font&gt;&lt;/u&gt;&lt;/b&gt;" style="text;html=1;strokeColor=none;fillColor=none;align=center;verticalAlign=middle;whiteSpace=wrap;rounded=0;shadow=0;comic=0;fontFamily=Verdana;" vertex="1" parent="iaBttmkS24rwcyHktMja-56">
          <mxGeometry x="10" width="40" height="20" as="geometry" />
        </mxCell>
        <mxCell id="iaBttmkS24rwcyHktMja-61" value="" style="group" vertex="1" connectable="0" parent="1">
          <mxGeometry x="940" y="60" width="360" height="220" as="geometry" />
        </mxCell>
        <mxCell id="iaBttmkS24rwcyHktMja-59" value="" style="shape=cube;whiteSpace=wrap;html=1;boundedLbl=1;backgroundOutline=1;darkOpacity=0.05;darkOpacity2=0.1;rounded=0;shadow=0;comic=0;strokeColor=#82b366;strokeWidth=1;fillColor=#d5e8d4;fontFamily=Verdana;align=left;" vertex="1" parent="iaBttmkS24rwcyHktMja-61">
          <mxGeometry width="360" height="220" as="geometry" />
        </mxCell>
        <mxCell id="39150e848f15840c-7" value="Login" style="shape=component;align=left;spacingLeft=36;rounded=0;shadow=0;comic=0;labelBackgroundColor=none;strokeWidth=1;fontFamily=Verdana;fontSize=12;html=1;" parent="iaBttmkS24rwcyHktMja-61" vertex="1">
          <mxGeometry x="50" y="142.5" width="120" height="60" as="geometry" />
        </mxCell>
        <mxCell id="iaBttmkS24rwcyHktMja-1" value="usuarios" style="shape=component;align=left;spacingLeft=36;rounded=0;shadow=0;comic=0;labelBackgroundColor=none;strokeWidth=1;fontFamily=Verdana;fontSize=12;html=1;" vertex="1" parent="iaBttmkS24rwcyHktMja-61">
          <mxGeometry x="50" y="70" width="120" height="60" as="geometry" />
        </mxCell>
        <mxCell id="iaBttmkS24rwcyHktMja-5" value="Security Filter" style="ellipse;shape=umlControl;whiteSpace=wrap;html=1;rounded=0;shadow=0;comic=0;strokeWidth=1;fontFamily=Verdana;align=left;fillColor=#FF0000;" vertex="1" parent="iaBttmkS24rwcyHktMja-61">
          <mxGeometry x="220" y="95" width="70" height="80" as="geometry" />
        </mxCell>
        <mxCell id="iaBttmkS24rwcyHktMja-60" value="&lt;b&gt;&lt;u&gt;&lt;font style=&quot;font-size: 15px&quot;&gt;Login&lt;/font&gt;&lt;/u&gt;&lt;/b&gt;" style="text;html=1;strokeColor=none;fillColor=none;align=center;verticalAlign=middle;whiteSpace=wrap;rounded=0;shadow=0;comic=0;fontFamily=Verdana;" vertex="1" parent="iaBttmkS24rwcyHktMja-61">
          <mxGeometry x="40" y="31.25" width="40" height="20" as="geometry" />
        </mxCell>
        <mxCell id="iaBttmkS24rwcyHktMja-76" value="" style="endArrow=classic;html=1;strokeWidth=5;fontFamily=Verdana;fillColor=#dae8fc;strokeColor=#6c8ebf;dashed=1;entryX=0.358;entryY=0.004;entryDx=0;entryDy=0;entryPerimeter=0;" edge="1" parent="1" target="iaBttmkS24rwcyHktMja-46">
          <mxGeometry width="50" height="50" relative="1" as="geometry">
            <mxPoint x="110" y="230" as="sourcePoint" />
            <mxPoint x="340" y="360" as="targetPoint" />
          </mxGeometry>
        </mxCell>
        <mxCell id="iaBttmkS24rwcyHktMja-77" value="" style="endArrow=classic;html=1;strokeWidth=5;fontFamily=Verdana;fillColor=#dae8fc;strokeColor=#6c8ebf;dashed=1;entryX=0.001;entryY=0.191;entryDx=0;entryDy=0;entryPerimeter=0;" edge="1" parent="1" target="iaBttmkS24rwcyHktMja-35">
          <mxGeometry width="50" height="50" relative="1" as="geometry">
            <mxPoint x="280" y="224.9999999999999" as="sourcePoint" />
            <mxPoint x="281.7199999999998" y="486" as="targetPoint" />
          </mxGeometry>
        </mxCell>
        <mxCell id="iaBttmkS24rwcyHktMja-78" value="" style="endArrow=classic;html=1;strokeWidth=5;fontFamily=Verdana;fillColor=#dae8fc;strokeColor=#6c8ebf;dashed=1;" edge="1" parent="1" target="iaBttmkS24rwcyHktMja-114">
          <mxGeometry width="50" height="50" relative="1" as="geometry">
            <mxPoint x="250" y="30" as="sourcePoint" />
            <mxPoint x="450" y="30" as="targetPoint" />
            <Array as="points">
              <mxPoint x="400" y="30" />
            </Array>
          </mxGeometry>
        </mxCell>
        <mxCell id="iaBttmkS24rwcyHktMja-80" value="" style="endArrow=classic;html=1;strokeWidth=5;fontFamily=Verdana;fillColor=#f8cecc;strokeColor=#b85450;exitX=0.12;exitY=1.04;exitDx=0;exitDy=0;exitPerimeter=0;" edge="1" parent="1" source="iaBttmkS24rwcyHktMja-51" target="iaBttmkS24rwcyHktMja-46">
          <mxGeometry width="50" height="50" relative="1" as="geometry">
            <mxPoint x="640" y="280" as="sourcePoint" />
            <mxPoint x="640" y="515" as="targetPoint" />
          </mxGeometry>
        </mxCell>
        <mxCell id="iaBttmkS24rwcyHktMja-97" value="" style="group" vertex="1" connectable="0" parent="1">
          <mxGeometry x="990" y="350" width="260" height="170" as="geometry" />
        </mxCell>
        <mxCell id="iaBttmkS24rwcyHktMja-85" value="" style="shape=cube;whiteSpace=wrap;html=1;boundedLbl=1;backgroundOutline=1;darkOpacity=0.05;darkOpacity2=0.1;rounded=0;shadow=0;comic=0;strokeColor=#82b366;strokeWidth=1;fillColor=#d5e8d4;fontFamily=Verdana;align=left;" vertex="1" parent="iaBttmkS24rwcyHktMja-97">
          <mxGeometry width="260" height="170" as="geometry" />
        </mxCell>
        <mxCell id="iaBttmkS24rwcyHktMja-86" value="&lt;b&gt;&lt;u&gt;&lt;font style=&quot;font-size: 16px&quot;&gt;Core&lt;/font&gt;&lt;/u&gt;&lt;/b&gt;" style="text;html=1;strokeColor=none;fillColor=none;align=center;verticalAlign=middle;whiteSpace=wrap;rounded=0;shadow=0;comic=0;fontFamily=Verdana;" vertex="1" parent="iaBttmkS24rwcyHktMja-97">
          <mxGeometry x="40" y="30" width="40" height="20" as="geometry" />
        </mxCell>
        <mxCell id="iaBttmkS24rwcyHktMja-93" value="Core" style="shape=module;align=left;spacingLeft=20;align=center;verticalAlign=top;rounded=0;shadow=0;comic=0;strokeWidth=1;fontFamily=Verdana;html=1;" vertex="1" parent="iaBttmkS24rwcyHktMja-97">
          <mxGeometry x="50" y="90" width="100" height="50" as="geometry" />
        </mxCell>
        <mxCell id="iaBttmkS24rwcyHktMja-98" value="" style="endArrow=open;endFill=1;endSize=12;html=1;strokeWidth=5;fontFamily=Verdana;" edge="1" parent="1" source="iaBttmkS24rwcyHktMja-50" target="iaBttmkS24rwcyHktMja-85">
          <mxGeometry width="160" relative="1" as="geometry">
            <mxPoint x="740" y="328.33000000000004" as="sourcePoint" />
            <mxPoint x="880" y="350" as="targetPoint" />
          </mxGeometry>
        </mxCell>
        <mxCell id="iaBttmkS24rwcyHktMja-99" value="" style="endArrow=open;endFill=1;endSize=12;html=1;strokeWidth=5;fontFamily=Verdana;" edge="1" parent="1" source="iaBttmkS24rwcyHktMja-59" target="iaBttmkS24rwcyHktMja-85">
          <mxGeometry width="160" relative="1" as="geometry">
            <mxPoint x="787.1428571428573" y="280" as="sourcePoint" />
            <mxPoint x="890" y="360" as="targetPoint" />
          </mxGeometry>
        </mxCell>
        <mxCell id="iaBttmkS24rwcyHktMja-101" value="" style="endArrow=open;endFill=1;endSize=12;html=1;strokeWidth=5;fontFamily=Verdana;exitX=0.426;exitY=-0.01;exitDx=0;exitDy=0;exitPerimeter=0;" edge="1" parent="1" source="iaBttmkS24rwcyHktMja-23">
          <mxGeometry width="160" relative="1" as="geometry">
            <mxPoint x="670.0028571428574" y="225" as="sourcePoint" />
            <mxPoint x="1140" y="524" as="targetPoint" />
            <Array as="points">
              <mxPoint x="1140" y="580" />
            </Array>
          </mxGeometry>
        </mxCell>
        <mxCell id="iaBttmkS24rwcyHktMja-102" value="" style="endArrow=open;endFill=1;endSize=12;html=1;strokeWidth=5;fontFamily=Verdana;" edge="1" parent="1">
          <mxGeometry width="160" relative="1" as="geometry">
            <mxPoint x="160" y="540" as="sourcePoint" />
            <mxPoint x="980" y="380" as="targetPoint" />
            <Array as="points">
              <mxPoint x="160" y="380" />
            </Array>
          </mxGeometry>
        </mxCell>
        <mxCell id="iaBttmkS24rwcyHktMja-103" value="" style="endArrow=open;endFill=1;endSize=12;html=1;strokeWidth=5;fontFamily=Verdana;entryX=-0.01;entryY=0.271;entryDx=0;entryDy=0;entryPerimeter=0;" edge="1" parent="1" source="iaBttmkS24rwcyHktMja-35" target="iaBttmkS24rwcyHktMja-85">
          <mxGeometry width="160" relative="1" as="geometry">
            <mxPoint x="790" y="430" as="sourcePoint" />
            <mxPoint x="980" y="369.0449438202247" as="targetPoint" />
            <Array as="points">
              <mxPoint x="800" y="400" />
            </Array>
          </mxGeometry>
        </mxCell>
        <mxCell id="iaBttmkS24rwcyHktMja-104" value="" style="endArrow=open;endFill=1;endSize=12;html=1;strokeWidth=5;fontFamily=Verdana;exitX=0;exitY=0;exitDx=160;exitDy=145;exitPerimeter=0;" edge="1" parent="1" source="iaBttmkS24rwcyHktMja-28">
          <mxGeometry width="160" relative="1" as="geometry">
            <mxPoint x="180" y="360" as="sourcePoint" />
            <mxPoint x="980" y="379" as="targetPoint" />
            <Array as="points">
              <mxPoint x="160" y="379" />
            </Array>
          </mxGeometry>
        </mxCell>
        <mxCell id="iaBttmkS24rwcyHktMja-107" value="" style="endArrow=classic;html=1;strokeWidth=5;fontFamily=Verdana;fillColor=#dae8fc;strokeColor=#6c8ebf;dashed=1;exitX=0;exitY=0;exitDx=300;exitDy=82.5;exitPerimeter=0;" edge="1" parent="1">
          <mxGeometry width="50" height="50" relative="1" as="geometry">
            <mxPoint x="310" y="172.5" as="sourcePoint" />
            <mxPoint x="470" y="178.1338028169016" as="targetPoint" />
          </mxGeometry>
        </mxCell>
        <mxCell id="iaBttmkS24rwcyHktMja-108" value="" style="endArrow=classic;html=1;strokeWidth=5;fontFamily=Verdana;fillColor=#f8cecc;strokeColor=#b85450;" edge="1" parent="1">
          <mxGeometry width="50" height="50" relative="1" as="geometry">
            <mxPoint x="250" y="-30" as="sourcePoint" />
            <mxPoint x="460" y="-30" as="targetPoint" />
          </mxGeometry>
        </mxCell>
        <mxCell id="iaBttmkS24rwcyHktMja-112" value="&lt;b&gt;&lt;u&gt;&lt;font style=&quot;font-size: 15px&quot;&gt;Transaccional&lt;/font&gt;&lt;/u&gt;&lt;/b&gt;" style="text;html=1;strokeColor=none;fillColor=none;align=center;verticalAlign=middle;whiteSpace=wrap;rounded=0;shadow=0;comic=0;fontFamily=Verdana;" vertex="1" parent="1">
          <mxGeometry x="170" y="-60" width="270" height="20" as="geometry" />
        </mxCell>
        <mxCell id="iaBttmkS24rwcyHktMja-114" value="&lt;b&gt;&lt;font style=&quot;font-size: 16px&quot;&gt;No transaccional&lt;/font&gt;&lt;/b&gt;" style="text;html=1;strokeColor=none;fillColor=none;align=center;verticalAlign=middle;whiteSpace=wrap;rounded=0;" vertex="1" parent="1">
          <mxGeometry x="210" y="-10" width="210" height="50" as="geometry" />
        </mxCell>
      </root>
    </mxGraphModel>
  </diagram>
</mxfile>
